<svg width="71" height="14" viewBox="0 0 71 14" fill="none" xmlns="http://www.w3.org/2000/svg">
<path d="M7.02273 5C6.99242 4.62121 6.85038 4.32576 6.59659 4.11364C6.34659 3.90151 5.96591 3.79545 5.45455 3.79545C5.12879 3.79545 4.86174 3.83523 4.65341 3.91477C4.44886 3.99053 4.29735 4.0947 4.19886 4.22727C4.10038 4.35985 4.04924 4.51136 4.04545 4.68182C4.03788 4.82197 4.0625 4.94886 4.11932 5.0625C4.17992 5.17235 4.27462 5.27273 4.40341 5.36364C4.5322 5.45076 4.69697 5.5303 4.89773 5.60227C5.09849 5.67424 5.33712 5.73864 5.61364 5.79545L6.56818 6C7.21212 6.13636 7.76326 6.31629 8.22159 6.53977C8.67992 6.76326 9.05492 7.02652 9.34659 7.32955C9.63826 7.62879 9.85227 7.96591 9.98864 8.34091C10.1288 8.71591 10.2008 9.125 10.2045 9.56818C10.2008 10.3333 10.0095 10.9811 9.63068 11.5114C9.25189 12.0417 8.71023 12.4451 8.00568 12.7216C7.30492 12.9981 6.46212 13.1364 5.47727 13.1364C4.46591 13.1364 3.58333 12.9867 2.82955 12.6875C2.07955 12.3883 1.49621 11.928 1.07955 11.3068C0.666667 10.6818 0.458333 9.88258 0.454545 8.90909H3.45455C3.47348 9.26515 3.5625 9.56439 3.72159 9.80682C3.88068 10.0492 4.10417 10.233 4.39205 10.358C4.68371 10.483 5.0303 10.5455 5.43182 10.5455C5.76894 10.5455 6.05114 10.5038 6.27841 10.4205C6.50568 10.3371 6.67803 10.2216 6.79545 10.0739C6.91288 9.92614 6.97348 9.75758 6.97727 9.56818C6.97348 9.39015 6.91477 9.23485 6.80114 9.10227C6.69129 8.96591 6.50947 8.8447 6.25568 8.73864C6.00189 8.62879 5.65909 8.52652 5.22727 8.43182L4.06818 8.18182C3.03788 7.95833 2.22538 7.58523 1.63068 7.0625C1.03977 6.53598 0.746212 5.81818 0.75 4.90909C0.746212 4.17045 0.943182 3.52462 1.34091 2.97159C1.74242 2.41477 2.29735 1.98106 3.00568 1.67045C3.7178 1.35985 4.53409 1.20455 5.45455 1.20455C6.39394 1.20455 7.20644 1.36174 7.89205 1.67614C8.57765 1.99053 9.10606 2.43371 9.47727 3.00568C9.85227 3.57386 10.0417 4.23864 10.0455 5H7.02273ZM16.6562 4.27273V6.54545H10.9062V4.27273H16.6562ZM12.0199 2.18182H15.1562V10.1932C15.1562 10.3144 15.1771 10.4167 15.2188 10.5C15.2604 10.5795 15.3248 10.6402 15.4119 10.6818C15.4991 10.7197 15.6108 10.7386 15.7472 10.7386C15.8419 10.7386 15.9517 10.7273 16.0767 10.7045C16.2055 10.6818 16.3002 10.6629 16.3608 10.6477L16.8153 12.8523C16.6752 12.8939 16.4744 12.9451 16.2131 13.0057C15.9555 13.0663 15.6487 13.1061 15.2926 13.125C14.5729 13.1629 13.9688 13.089 13.4801 12.9034C12.9915 12.714 12.6241 12.4167 12.3778 12.0114C12.1316 11.6061 12.0123 11.0985 12.0199 10.4886V2.18182ZM20.3679 13.1364C19.8111 13.1364 19.3187 13.0455 18.8906 12.8636C18.4664 12.678 18.133 12.3977 17.8906 12.0227C17.6482 11.6477 17.527 11.1705 17.527 10.5909C17.527 10.1136 17.6084 9.70644 17.7713 9.36932C17.9342 9.02841 18.1615 8.75 18.4531 8.53409C18.7448 8.31818 19.0838 8.15341 19.4702 8.03977C19.8603 7.92614 20.2808 7.85227 20.7315 7.81818C21.2202 7.7803 21.6122 7.73485 21.9077 7.68182C22.2069 7.625 22.4228 7.54735 22.5554 7.44886C22.688 7.34659 22.7543 7.21212 22.7543 7.04545V7.02273C22.7543 6.79545 22.6671 6.62121 22.4929 6.5C22.3187 6.37879 22.0952 6.31818 21.8224 6.31818C21.5232 6.31818 21.2789 6.38447 21.0895 6.51705C20.9039 6.64583 20.7921 6.8447 20.7543 7.11364H17.8679C17.9058 6.58333 18.0743 6.0947 18.3736 5.64773C18.6766 5.19697 19.1179 4.83712 19.6974 4.56818C20.277 4.29545 21.0005 4.15909 21.8679 4.15909C22.4929 4.15909 23.0535 4.23295 23.5497 4.38068C24.0459 4.52462 24.4683 4.72727 24.8168 4.98864C25.1652 5.24621 25.4304 5.54924 25.6122 5.89773C25.7978 6.24242 25.8906 6.61742 25.8906 7.02273V13H22.9588V11.7727H22.8906C22.7164 12.0985 22.5043 12.3617 22.2543 12.5625C22.008 12.7633 21.7259 12.9091 21.4077 13C21.0933 13.0909 20.7467 13.1364 20.3679 13.1364ZM21.3906 11.1591C21.6293 11.1591 21.8527 11.1098 22.0611 11.0114C22.2732 10.9129 22.4455 10.7708 22.5781 10.5852C22.7107 10.3996 22.777 10.1742 22.777 9.90909V9.18182C22.6937 9.21591 22.6046 9.24811 22.5099 9.27841C22.419 9.30871 22.3205 9.33712 22.2145 9.36364C22.1122 9.39015 22.0024 9.41477 21.8849 9.4375C21.7713 9.46023 21.652 9.48106 21.527 9.5C21.2846 9.53788 21.0857 9.60038 20.9304 9.6875C20.7789 9.77083 20.6652 9.875 20.5895 10C20.5175 10.1212 20.4815 10.2576 20.4815 10.4091C20.4815 10.6515 20.5668 10.8371 20.7372 10.9659C20.9077 11.0947 21.1255 11.1591 21.3906 11.1591ZM27.3892 13V4.27273H30.4347V5.93182H30.5256C30.6847 5.31818 30.9366 4.86932 31.2812 4.58523C31.6297 4.30114 32.0369 4.15909 32.5028 4.15909C32.6392 4.15909 32.7737 4.17045 32.9062 4.19318C33.0426 4.21212 33.1733 4.24053 33.2983 4.27841V6.95455C33.143 6.90152 32.9517 6.86174 32.7244 6.83523C32.4972 6.80871 32.3021 6.79545 32.1392 6.79545C31.8324 6.79545 31.5559 6.86553 31.3097 7.00568C31.0672 7.14205 30.8759 7.33523 30.7358 7.58523C30.5956 7.83144 30.5256 8.12121 30.5256 8.45455V13H27.3892ZM39.8906 4.27273V6.54545H34.1406V4.27273H39.8906ZM35.2543 2.18182H38.3906V10.1932C38.3906 10.3144 38.4115 10.4167 38.4531 10.5C38.4948 10.5795 38.5592 10.6402 38.6463 10.6818C38.7334 10.7197 38.8452 10.7386 38.9815 10.7386C39.0762 10.7386 39.1861 10.7273 39.3111 10.7045C39.4399 10.6818 39.5346 10.6629 39.5952 10.6477L40.0497 12.8523C39.9096 12.8939 39.7088 12.9451 39.4474 13.0057C39.1899 13.0663 38.883 13.1061 38.527 13.125C37.8073 13.1629 37.2031 13.089 36.7145 12.9034C36.2259 12.714 35.8584 12.4167 35.6122 12.0114C35.366 11.6061 35.2467 11.0985 35.2543 10.4886V2.18182ZM46.3977 4.27273V6.54545H40.5568V4.27273H46.3977ZM41.6705 13V4.02273C41.6705 3.30303 41.7992 2.70644 42.0568 2.23295C42.3144 1.75947 42.678 1.4053 43.1477 1.17045C43.6174 0.935605 44.1705 0.818181 44.8068 0.818181C45.2045 0.818181 45.5909 0.848484 45.9659 0.909091C46.3447 0.969697 46.625 1.02273 46.8068 1.06818L46.3523 3.31818C46.2386 3.28409 46.1061 3.25758 45.9545 3.23864C45.803 3.21591 45.6705 3.20455 45.5568 3.20455C45.2614 3.20455 45.0625 3.26705 44.9602 3.39205C44.858 3.51705 44.8068 3.68182 44.8068 3.88636V13H41.6705ZM47.608 13V4.27273H50.7443V13H47.608ZM49.1761 3.36364C48.7519 3.36364 48.3883 3.22348 48.0852 2.94318C47.7822 2.66288 47.6307 2.32576 47.6307 1.93182C47.6307 1.53788 47.7822 1.20076 48.0852 0.920454C48.3883 0.640151 48.7519 0.5 49.1761 0.5C49.6042 0.5 49.9678 0.640151 50.267 0.920454C50.5701 1.20076 50.7216 1.53788 50.7216 1.93182C50.7216 2.32576 50.5701 2.66288 50.267 2.94318C49.9678 3.22348 49.6042 3.36364 49.1761 3.36364ZM60.3196 7.11364H57.4332C57.4181 6.93561 57.3556 6.7822 57.2457 6.65341C57.1359 6.52462 56.9938 6.42614 56.8196 6.35795C56.6491 6.28598 56.4598 6.25 56.2514 6.25C55.9825 6.25 55.7514 6.29924 55.5582 6.39773C55.3651 6.49621 55.2704 6.63636 55.2741 6.81818C55.2704 6.94697 55.3253 7.06629 55.4389 7.17614C55.5563 7.28598 55.7817 7.37121 56.1151 7.43182L57.8878 7.75C58.7817 7.91288 59.4465 8.1875 59.8821 8.57386C60.3215 8.95644 60.5431 9.4697 60.5469 10.1136C60.5431 10.7348 60.3575 11.2746 59.9901 11.733C59.6264 12.1875 59.1283 12.5398 58.4957 12.7898C57.867 13.036 57.1491 13.1591 56.3423 13.1591C55.009 13.1591 53.9654 12.8864 53.2116 12.3409C52.4616 11.7955 52.0431 11.0758 51.956 10.1818H55.0696C55.1113 10.4583 55.2476 10.6723 55.4787 10.8239C55.7135 10.9716 56.009 11.0455 56.3651 11.0455C56.6529 11.0455 56.8897 10.9962 57.0753 10.8977C57.2647 10.7992 57.3613 10.6591 57.3651 10.4773C57.3613 10.3106 57.2779 10.178 57.1151 10.0795C56.956 9.98106 56.706 9.90152 56.3651 9.84091L54.8196 9.56818C53.9295 9.41288 53.2628 9.11742 52.8196 8.68182C52.3764 8.24621 52.1567 7.68561 52.1605 7C52.1567 6.39394 52.3158 5.88068 52.6378 5.46023C52.9635 5.03598 53.4276 4.71401 54.0298 4.49432C54.6359 4.27083 55.3537 4.15909 56.1832 4.15909C57.4446 4.15909 58.4389 4.42045 59.1662 4.94318C59.8973 5.46591 60.2817 6.18939 60.3196 7.11364ZM64.8849 8.09091V13H61.7486V1.36364H64.7713V5.93182H64.8622C65.0592 5.375 65.3868 4.94129 65.8452 4.63068C66.3035 4.31629 66.8546 4.15909 67.4986 4.15909C68.116 4.15909 68.652 4.29924 69.1065 4.57955C69.5649 4.85985 69.919 5.24621 70.169 5.73864C70.4228 6.23106 70.5478 6.79545 70.544 7.43182V13H67.4077V8.09091C67.4115 7.65909 67.3035 7.32008 67.0838 7.07386C66.8679 6.82765 66.5592 6.70455 66.1577 6.70455C65.9039 6.70455 65.6804 6.76136 65.4872 6.875C65.2978 6.98485 65.1501 7.14394 65.044 7.35227C64.9418 7.55682 64.8887 7.80303 64.8849 8.09091Z" fill="#161414"/>
</svg>
